<svg style="position: absolute; width: 0; height: 0; overflow: hidden;" version="1.1" xmlns="http://www.w3.org/2000/svg" xmlns:xlink="http://www.w3.org/1999/xlink">
<defs>

<symbol id="icon-www" viewBox="0 0 480.096 480">
<title>www icon</title>
<path d="m240.097656.046875h-.097656c-132.546875 0-240 107.453125-240 240 0 132.550781 107.453125 240 240 240h.097656c132.546875 0 240-107.449219 240-240 0-132.546875-107.453125-240-240-240zm205.964844 152h-106.167969c-6.191406-22.214844-14.820312-43.679687-25.734375-64h90.28125c17.421875 18.804687 31.5 40.449219 41.621094 64zm-206.039062-133.390625c17.492187 15.785156 32.914062 33.726562 45.886718 53.390625h-91.71875c12.957032-19.664063 28.355469-37.605469 45.832032-53.390625zm-65 53.390625h-82.855469c35.230469-31.15625 79.410156-50.382813 126.222656-54.925781-16.558594 16.542968-31.113281 34.980468-43.367187 54.925781zm86.671874-54.941406c46.851563 4.527343 91.070313 23.757812 126.328126 54.941406h-82.933594c-12.261719-19.953125-26.824219-38.394531-43.394532-54.941406zm34.128907 70.941406c11.683593 20.175781 20.949219 41.65625 27.609375 64h-166.679688c6.625-22.339844 15.871094-43.824219 27.535156-64zm-220.070313 0h90.207032c-10.894532 20.320313-19.503907 41.785156-25.671876 64h-106.160156c10.121094-23.550781 24.199219-45.195313 41.625-64zm-47.722656 80h424.128906c15.914063 46.683594 15.914063 97.320313 0 144h-424.128906c-15.914062-46.679687-15.914062-97.316406 0-144zm212 293.394531c-17.476562-15.785156-32.882812-33.726562-45.839844-53.394531h91.71875c-12.972656 19.667969-28.394531 37.609375-45.886718 53.394531zm65.058594-53.394531h82.933594c-35.277344 31.199219-79.523438 50.429687-126.398438 54.945313 16.59375-16.546876 31.183594-34.988282 43.464844-54.945313zm-86.699219 54.929687c-46.8125-4.546874-90.992187-23.769531-126.222656-54.929687h82.855469c12.253906 19.949219 26.808593 38.382813 43.367187 54.929687zm-34.101563-70.929687c-11.664062-20.175781-20.910156-41.65625-27.535156-64h166.679688c-6.660156 22.34375-15.925782 43.824219-27.609375 64zm-150.160156-64h106.160156c6.167969 22.214844 14.777344 43.679687 25.671876 64h-90.207032c-17.425781-18.800781-31.503906-40.449219-41.625-64zm370.3125 64h-90.28125c10.914063-20.316406 19.542969-41.78125 25.734375-64h106.167969c-10.121094 23.550781-24.199219 45.199219-41.621094 64zm0 0"/><path d="m64.375 282.152344c.941406 3.445312 4.046875 5.851562 7.617188 5.894531h.105468c3.53125 0 6.648438-2.316406 7.664063-5.703125l16.335937-54.457031 16.335938 54.457031c1.011718 3.386719 4.128906 5.703125 7.664062 5.703125h.101563c3.570312-.042969 6.679687-2.449219 7.617187-5.894531l24-88-15.441406-4.207032-16.648438 61.039063-16-53.230469c-1.011718-3.386718-4.128906-5.707031-7.664062-5.707031-3.53125 0-6.648438 2.320313-7.664062 5.707031l-16 53.230469-16.644532-61.039063-15.441406 4.207032zm0 0"/><path d="m215.992188 288.046875h.105468c3.53125 0 6.648438-2.316406 7.664063-5.703125l16.335937-54.457031 16.335938 54.457031c1.011718 3.386719 4.128906 5.703125 7.664062 5.703125h.101563c3.570312-.042969 6.679687-2.449219 7.617187-5.894531l24-88-15.441406-4.207032-16.648438 61.039063-16-53.230469c-1.011718-3.386718-4.128906-5.707031-7.664062-5.707031-3.53125 0-6.648438 2.320313-7.664062 5.707031l-16 53.230469-16.644532-61.039063-15.441406 4.207032 24 88c.945312 3.46875 4.085938 5.878906 7.679688 5.894531zm0 0"/><path d="m359.992188 288.046875h.105468c3.53125 0 6.648438-2.316406 7.664063-5.703125l16.335937-54.457031 16.335938 54.457031c1.011718 3.386719 4.128906 5.703125 7.664062 5.703125h.101563c3.570312-.042969 6.679687-2.449219 7.617187-5.894531l24-88-15.441406-4.207032-16.648438 61.039063-16-53.230469c-1.011718-3.386718-4.128906-5.707031-7.664062-5.707031-3.53125 0-6.648438 2.320313-7.664062 5.707031l-16 53.230469-16.644532-61.039063-15.441406 4.207032 24 88c.945312 3.46875 4.085938 5.878906 7.679688 5.894531zm0 0"/>
</symbol>

<symbol id="icon-info" viewBox="0 0 111.577 111.577">
<title>info icon</title>
<g>
	<path d="M78.962,99.536l-1.559,6.373c-4.677,1.846-8.413,3.251-11.195,4.217c-2.785,0.969-6.021,1.451-9.708,1.451
		c-5.662,0-10.066-1.387-13.207-4.142c-3.141-2.766-4.712-6.271-4.712-10.523c0-1.646,0.114-3.339,0.351-5.064
		c0.239-1.727,0.619-3.672,1.139-5.846l5.845-20.688c0.52-1.981,0.962-3.858,1.316-5.633c0.359-1.764,0.532-3.387,0.532-4.848
		c0-2.642-0.547-4.49-1.636-5.529c-1.089-1.036-3.167-1.562-6.252-1.562c-1.511,0-3.064,0.242-4.647,0.71
		c-1.59,0.47-2.949,0.924-4.09,1.346l1.563-6.378c3.829-1.559,7.489-2.894,10.99-4.002c3.501-1.111,6.809-1.667,9.938-1.667
		c5.623,0,9.962,1.359,13.009,4.077c3.047,2.72,4.57,6.246,4.57,10.591c0,0.899-0.1,2.483-0.315,4.747
		c-0.21,2.269-0.601,4.348-1.171,6.239l-5.82,20.605c-0.477,1.655-0.906,3.547-1.279,5.676c-0.385,2.115-0.569,3.731-0.569,4.815
		c0,2.736,0.61,4.604,1.833,5.597c1.232,0.993,3.354,1.487,6.368,1.487c1.415,0,3.025-0.251,4.814-0.744
		C76.854,100.348,78.155,99.915,78.962,99.536z M80.438,13.03c0,3.59-1.353,6.656-4.072,9.177c-2.712,2.53-5.98,3.796-9.803,3.796
		c-3.835,0-7.111-1.266-9.854-3.796c-2.738-2.522-4.11-5.587-4.11-9.177c0-3.583,1.372-6.654,4.11-9.207
		C59.447,1.274,62.729,0,66.563,0c3.822,0,7.091,1.277,9.803,3.823C79.087,6.376,80.438,9.448,80.438,13.03z"/>
</g>
<g>
</g>
<g>
</g>
<g>
</g>
<g>
</g>
<g>
</g>
<g>
</g>
<g>
</g>
<g>
</g>
<g>
</g>
<g>
</g>
<g>
</g>
<g>
</g>
<g>
</g>
<g>
</g>
<g>
</g>
</symbol>

<symbol id="icon-github" viewBox="0 0 24 24">
<title>github icon</title>
<path d="M12 .297c-6.63 0-12 5.373-12 12 0 5.303 3.438 9.8 8.205 11.385.6.113.82-.258.82-.577 0-.285-.01-1.04-.015-2.04-3.338.724-4.042-1.61-4.042-1.61C4.422 18.07 3.633 17.7 3.633 17.7c-1.087-.744.084-.729.084-.729 1.205.084 1.838 1.236 1.838 1.236 1.07 1.835 2.809 1.305 3.495.998.108-.776.417-1.305.76-1.605-2.665-.3-5.466-1.332-5.466-5.93 0-1.31.465-2.38 1.235-3.22-.135-.303-.54-1.523.105-3.176 0 0 1.005-.322 3.3 1.23.96-.267 1.98-.399 3-.405 1.02.006 2.04.138 3 .405 2.28-1.552 3.285-1.23 3.285-1.23.645 1.653.24 2.873.12 3.176.765.84 1.23 1.91 1.23 3.22 0 4.61-2.805 5.625-5.475 5.92.42.36.81 1.096.81 2.22 0 1.606-.015 2.896-.015 3.286 0 .315.21.69.825.57C20.565 22.092 24 17.592 24 12.297c0-6.627-5.373-12-12-12"/>
</symbol>

<symbol id="icon-codepen" viewBox="0 0 24 24">
<title>codepen icon</title>
<path d="M24 8.182l-.018-.087-.017-.05c-.01-.024-.018-.05-.03-.075-.003-.018-.015-.034-.02-.05l-.035-.067-.03-.05-.044-.06-.046-.045-.06-.045-.046-.03-.06-.044-.044-.04-.015-.02L12.58.19c-.347-.232-.796-.232-1.142 0L.453 7.502l-.015.015-.044.035-.06.05-.038.04-.05.056-.037.045-.05.06c-.02.017-.03.03-.03.046l-.05.06-.02.06c-.02.01-.02.04-.03.07l-.01.05C0 8.12 0 8.15 0 8.18v7.497c0 .044.003.09.01.135l.01.046c.005.03.01.06.02.086l.015.05c.01.027.016.053.027.075l.022.05c0 .01.015.04.03.06l.03.04c.015.01.03.04.045.06l.03.04.04.04c.01.013.01.03.03.03l.06.042.04.03.01.014 10.97 7.33c.164.12.375.163.57.163s.39-.06.57-.18l10.99-7.28.014-.01.046-.037.06-.043.048-.036.052-.058.033-.045.04-.06.03-.05.03-.07.016-.052.03-.077.015-.045.03-.08v-7.5c0-.05 0-.095-.016-.14l-.014-.045.044.003zm-11.99 6.28l-3.65-2.44 3.65-2.442 3.65 2.44-3.65 2.44zm-1.034-6.674l-4.473 2.99L2.89 8.362l8.086-5.39V7.79zm-6.33 4.233l-2.582 1.73V10.3l2.582 1.726zm1.857 1.25l4.473 2.99v4.82L2.89 15.69l3.618-2.417v-.004zm6.537 2.99l4.474-2.98 3.613 2.42-8.087 5.39v-4.82zm6.33-4.23l2.583-1.72v3.456l-2.583-1.73zm-1.855-1.24L13.042 7.8V2.97l8.085 5.39-3.612 2.415v.003z"/>
</symbol>

<symbol id="icon-linkedin" viewBox="0 0 24 24">
<title>linkedin icon</title>
<path d="M20.447 20.452h-3.554v-5.569c0-1.328-.027-3.037-1.852-3.037-1.853 0-2.136 1.445-2.136 2.939v5.667H9.351V9h3.414v1.561h.046c.477-.9 1.637-1.85 3.37-1.85 3.601 0 4.267 2.37 4.267 5.455v6.286zM5.337 7.433c-1.144 0-2.063-.926-2.063-2.065 0-1.138.92-2.063 2.063-2.063 1.14 0 2.064.925 2.064 2.063 0 1.139-.925 2.065-2.064 2.065zm1.782 13.019H3.555V9h3.564v11.452zM22.225 0H1.771C.792 0 0 .774 0 1.729v20.542C0 23.227.792 24 1.771 24h20.451C23.2 24 24 23.227 24 22.271V1.729C24 .774 23.2 0 22.222 0h.003z"/>
</symbol>

<symbol id="icon-dev" viewBox="0 0 480 480">
<title>Web development icon</title>
<g>
	<g>
		<path d="M392,0H88C65.92,0.026,48.026,17.92,48,40v216c0.026,22.08,17.92,39.974,40,40h109.392l-11.424,40H160v16h160v-16h-25.968
			l-11.424-40H392c22.08-0.026,39.974-17.92,40-40V40C431.974,17.92,414.08,0.026,392,0z M202.608,336l11.424-40h51.936l11.424,40
			H202.608z M416,256c0,13.255-10.745,24-24,24H88c-13.255,0-24-10.745-24-24v-16h352V256z M416,224H64V40c0-13.255,10.745-24,24-24
			h304c13.255,0,24,10.745,24,24V224z"/>
	</g>
</g>
<g>
	<g>
		<path d="M304,368H80c-4.418,0-8,3.582-8,8v96c0,4.418,3.582,8,8,8h224c4.418,0,8-3.582,8-8v-96C312,371.582,308.418,368,304,368z
			 M296,464H88v-80h208V464z"/>
	</g>
</g>
<g>
	<g>
		<rect x="104" y="432" width="16" height="16"/>
	</g>
</g>
<g>
	<g>
		<rect x="104" y="400" width="16" height="16"/>
	</g>
</g>
<g>
	<g>
		<rect x="136" y="400" width="16" height="16"/>
	</g>
</g>
<g>
	<g>
		<rect x="168" y="400" width="16" height="16"/>
	</g>
</g>
<g>
	<g>
		<rect x="232" y="400" width="16" height="16"/>
	</g>
</g>
<g>
	<g>
		<rect x="200" y="400" width="16" height="16"/>
	</g>
</g>
<g>
	<g>
		<rect x="264" y="432" width="16" height="16"/>
	</g>
</g>
<g>
	<g>
		<rect x="264" y="400" width="16" height="16"/>
	</g>
</g>
<g>
	<g>
		<rect x="136" y="432" width="112" height="16"/>
	</g>
</g>
<g>
	<g>
		<path d="M368,368c-22.091,0-40,17.909-40,40v32c0,22.091,17.909,40,40,40c22.091,0,40-17.909,40-40v-32
			C408,385.909,390.091,368,368,368z M392,440c0,13.255-10.745,24-24,24s-24-10.745-24-24v-32c0-13.255,10.745-24,24-24
			s24,10.745,24,24V440z"/>
	</g>
</g>
<g>
	<g>
		<rect x="360" y="400" width="16" height="16"/>
	</g>
</g>
<g>
	<g>
		
			<rect x="181.737" y="120.139" transform="matrix(0.2751 -0.9614 0.9614 0.2751 50.7457 323.5759)" width="116.43" height="15.993"/>
	</g>
</g>
<g>
	<g>
		<path d="M197.12,94.144l-10.24-12.288l-48,40c-3.393,2.83-3.85,7.874-1.02,11.268c0.309,0.37,0.65,0.712,1.02,1.02l48,40
			l10.24-12.288L156.496,128L197.12,94.144z"/>
	</g>
</g>
<g>
	<g>
		<path d="M342.14,122.876c-0.309-0.37-0.65-0.712-1.02-1.02l-48-40l-10.24,12.288L323.504,128l-40.624,33.856l10.24,12.288l48-40
			C344.513,131.314,344.97,126.27,342.14,122.876z"/>
	</g>
</g>
<g>
</g>
<g>
</g>
<g>
</g>
<g>
</g>
<g>
</g>
<g>
</g>
<g>
</g>
<g>
</g>
<g>
</g>
<g>
</g>
<g>
</g>
<g>
</g>
<g>
</g>
<g>
</g>
<g>
</g>
</symbol>

<symbol id="icon-tools" viewBox="0 0 512 512">
<title>Tools icon</title>
<g>
	<g>
		<path d="M494.353,46.611l-30.766-30.766c-20.064-20.064-53.872-21.231-75.366-2.6l-54.071,46.87
			c-0.692,0.6-1.286,1.306-1.758,2.091l-52.635,87.676l-33.796,11.265c-2.856,0.952-5.015,3.315-5.706,6.244
			c-0.691,2.929,0.183,6.007,2.311,8.136l92.105,92.104c1.648,1.647,3.865,2.543,6.141,2.543c0.665,0,1.334-0.076,1.995-0.232
			c2.929-0.691,5.292-2.85,6.244-5.706l11.268-33.807l88.965-53.72c0.783-0.474,1.487-1.067,2.085-1.761l45.76-53.029
			C515.656,100.451,514.409,66.668,494.353,46.611z M483.981,110.572l-44.857,51.982l-90.52,54.659
			c-1.767,1.067-3.096,2.729-3.749,4.689l-7.837,23.512l-20.755-20.755c-0.004-0.004-0.007-0.009-0.011-0.013l-30.703-30.701
			c-0.003-0.003-0.007-0.005-0.01-0.008l-20.757-20.757l23.512-7.837c1.966-0.656,3.633-1.992,4.699-3.768l53.578-89.243
			l53.026-45.964c14.753-12.79,37.949-12.002,51.708,1.759l30.767,30.766C495.838,72.657,496.694,95.841,483.981,110.572z"/>
	</g>
</g>
<g>
	<g>
		<path d="M469.736,348.922c-25.496-25.495-63.021-34.357-97.02-23.335L188.164,141.035c11.021-33.999,2.159-71.525-23.335-97.021
			C137.969,17.156,97.758,8.754,62.384,22.618c-2.727,1.069-4.733,3.441-5.332,6.309c-0.599,2.867,0.288,5.844,2.36,7.916
			l55.241,55.24L77.81,128.925L22.57,73.684c-2.073-2.071-5.046-2.956-7.916-2.36c-2.868,0.599-5.241,2.604-6.309,5.332
			c-13.862,35.372-5.463,75.584,21.396,102.445c25.496,25.495,63.021,34.359,97.02,23.335l69.008,69.008l-85.937,85.939
			l-54.658,30.56c-1.52,0.85-2.75,2.138-3.529,3.696l-24.561,49.122c-1.672,3.343-1.017,7.381,1.626,10.025l30.701,30.702
			c1.667,1.667,3.89,2.543,6.143,2.543c1.319,0,2.648-0.3,3.882-0.917l49.122-24.561c1.558-0.779,2.846-2.009,3.696-3.529
			l30.56-54.659l85.939-85.936l72.561,72.561c-11.022,33.999-2.159,71.525,23.336,97.021c18.263,18.262,42.696,27.99,67.586,27.99
			c11.716-0.001,23.536-2.157,34.858-6.593c2.727-1.069,4.733-3.441,5.332-6.309c0.599-2.867-0.288-5.844-2.36-7.916l-55.241-55.241
			l36.842-36.841l55.24,55.24c2.072,2.072,5.047,2.961,7.916,2.36c2.868-0.599,5.241-2.604,6.309-5.332
			C504.995,415.995,496.596,375.783,469.736,348.922z M139.68,388.935c-0.565,0.565-1.048,1.205-1.438,1.903l-29.843,53.376
			L67.267,464.78l-21.85-21.85l20.565-41.133l53.375-29.842c0.698-0.39,1.338-0.873,1.903-1.438l86.789-86.79l18.421,18.421
			L139.68,388.935z M478.86,431.73l-51.052-51.052c-3.392-3.39-8.889-3.39-12.281,0l-49.122,49.122
			c-1.628,1.629-2.543,3.837-2.543,6.141s0.915,4.511,2.543,6.141l51.053,51.053c-25.314,5.03-51.861-2.739-70.527-21.405
			c-21.977-21.977-28.85-54.882-17.507-83.827c1.259-3.214,0.496-6.868-1.944-9.309L135.157,186.272
			c-1.66-1.659-3.881-2.543-6.143-2.543c-1.064,0-2.138,0.196-3.166,0.599c-28.944,11.344-61.849,4.469-83.827-17.506
			c-18.667-18.668-26.437-45.216-21.404-70.528l51.052,51.053c3.392,3.391,8.889,3.389,12.281,0l49.122-49.122
			c3.391-3.392,3.391-8.889,0-12.281L82.02,34.891c25.314-5.04,51.859,2.736,70.527,21.405
			c21.977,21.977,28.85,54.882,17.507,83.827c-1.259,3.214-0.496,6.868,1.944,9.309l192.321,192.32
			c2.442,2.44,6.098,3.203,9.309,1.944c28.946-11.34,61.849-4.47,83.827,17.506C476.124,379.87,483.892,406.419,478.86,431.73z"/>
	</g>
</g>
<g>
</g>
<g>
</g>
<g>
</g>
<g>
</g>
<g>
</g>
<g>
</g>
<g>
</g>
<g>
</g>
<g>
</g>
<g>
</g>
<g>
</g>
<g>
</g>
<g>
</g>
<g>
</g>
<g>
</g>
</symbol>

</defs>
</svg>